<?xml version="1.0" standalone="no"?>
<!DOCTYPE svg PUBLIC "-//W3C//DTD SVG 20010904//EN"
 "http://www.w3.org/TR/2001/REC-SVG-20010904/DTD/svg10.dtd">
<svg version="1.0" xmlns="http://www.w3.org/2000/svg"
 width="512.000000pt" height="512.000000pt" viewBox="0 0 512.000000 512.000000"
 preserveAspectRatio="xMidYMid meet">
<metadata>
Created by potrace 1.15, written by Peter Selinger 2001-2017
</metadata>
<g transform="translate(0.000000,512.000000) scale(0.100000,-0.100000)"
fill="#000000" stroke="none">
<path d="M2317 4375 c-212 -30 -417 -96 -602 -193 -81 -42 -90 -50 -93 -78 -2
-21 7 -49 29 -85 36 -61 283 -492 462 -804 66 -115 129 -220 140 -232 26 -29
46 -29 105 1 112 56 256 60 373 11 73 -31 109 -39 125 -28 13 9 629 1069 643
1105 17 47 -3 66 -131 128 -153 74 -336 135 -487 161 -151 27 -426 34 -564 14z
m463 -119 c177 -24 373 -82 513 -152 63 -32 67 -36 56 -57 -15 -28 -516 -895
-535 -924 l-13 -21 -63 21 c-89 30 -278 29 -360 -1 -43 -15 -59 -18 -66 -9
-11 15 -552 956 -552 961 0 8 189 86 277 115 90 29 265 67 348 74 101 9 300 5
395 -7z"/>
<path d="M2469 2875 c-110 -35 -193 -121 -225 -233 -42 -142 35 -306 174 -374
34 -17 69 -24 129 -26 72 -4 89 -1 140 23 76 34 135 93 168 167 24 53 27 70
23 141 -4 96 -30 159 -91 220 -79 79 -217 114 -318 82z m178 -129 c126 -59
156 -226 57 -327 -47 -48 -89 -62 -164 -57 -78 6 -129 40 -164 109 -42 86 -29
166 39 234 67 67 145 81 232 41z"/>
<path d="M745 2600 c-16 -18 -17 -33 -12 -137 26 -472 236 -920 584 -1242 91
-84 236 -193 311 -233 39 -21 44 -22 67 -8 31 18 655 1092 655 1127 0 25 -17
44 -80 87 -89 61 -165 198 -176 320 -4 33 -13 71 -20 84 l-14 22 -649 0 c-635
0 -648 0 -666 -20z m1231 -127 c31 -146 87 -252 181 -339 l54 -52 -278 -481
c-153 -264 -283 -481 -288 -481 -24 0 -228 166 -315 257 -211 220 -355 481
-431 776 -20 79 -48 264 -49 320 l0 27 560 0 560 0 6 -27z"/>
<path d="M3048 2603 c-8 -10 -20 -54 -26 -98 -22 -145 -70 -220 -232 -357 -24
-21 -31 -33 -27 -50 9 -35 625 -1101 644 -1115 29 -22 53 -14 152 50 271 178
487 419 628 702 120 238 180 465 199 741 10 160 86 144 -679 144 -601 0 -645
-1 -659 -17z m1218 -135 c-3 -18 -8 -64 -11 -103 -16 -172 -79 -385 -170 -567
-127 -255 -319 -478 -549 -637 l-74 -51 -276 480 c-152 264 -276 483 -276 486
0 4 32 40 71 81 80 85 133 183 152 282 l12 61 563 0 563 0 -5 -32z"/>
</g>
</svg>
